/* XPM */
static char *expresso48[]={
"48 48 11 1",
". c #000000",
"b c #00003f",
"# c #00007f",
"c c #0000bf",
"a c #0000ff",
"h c #000200",
"g c #000400",
"i c #000800",
"d c #200000",
"e c #400000",
"f c #800000",
"................................................",
"................................................",
"................................................",
".#aaaa.#aa#..#aa#.aaaa#.aaaa#.aaaa#.aaaa#.aaaa#.",
".#aaaa.#aa#..#aa#.aaaa#.aaaa#.aaaa#.aaaa#.aaaa#.",
".#aaaa.#aa#..#aa#.aaaa#.aaaa#.aaaa#.aaaa#.aaaa#.",
".#a......a#..#a...a#.a#.a#.a#.a#....a#....a#....",
".#a......a#..#a...a#.a#.a#.a#.a#....a#....a#....",
".#a......a#..#a...a#.a#.a#.a#.a#....a#....a#....",
".#a......aaaaaa...a#.a#.a#.a#.a#....a#....a#....",
".#a#b....#caac#...ac#a#.ac#a#.ac#...ac##b.ac##b.",
".#aa#.....#aa#....aaaa#.aaaa#.aaa...aaaa#.aaaa#.",
".#aa#.....#aa#....aaaa#.aaaa#.aaa...aaaa#.aaaa#.",
".#a#b....#caac#...ac##b.aaa#b.ac#...###a#.###a#.",
".#a......aaaaaa...a#....aaa...a#.......a#....a#.",
".#a......a#..#a...a#....a#.a#.a#.......a#....a#.",
".#a......a#..#a...a#....a#.a#.a#.......a#....a#.",
".#a......a#..#a...a#....a#.a#.a#.......a#....a#.",
".#aaaa.#aa#..#aa#.a#....a#.a#.aaaa#.aaaa#.aaaa#.",
".#aaaa.#aa#..#aa#.a#....a#.a#.aaaa#.aaaa#.aaaa#.",
".#aaaa.#aa#..#aa#.a#....a#.a#.aaaa#.aaaa#.aaaa#.",
"................................................",
".deeeeeeeeeeeeeeeeeeeeeeeeeeeeeeeeeeeeeeeeeeeed.",
".effffffffffffffffffffffffffffffffffffffffffffe.",
".effffffffffffffffffffffffffffffffffffffffffffe.",
".deeeeeeeeeeeeeeeeeeeeeeeeeeeeeeeeeeeeeeeeeeeed.",
"................................................",
"....#aaaa.#a...a#.aaaaaa.#aaaa.#a...a#.aaaa#....",
"....#aaaa.#agh.a#.aaaaaa.#aaaa.#a...a#.aaaa#....",
"....#aaaa.#aig.a#.aaaaaa.#aaaa.#a...a#.aaaa#....",
"....#a....#a...a#.a#..#a...a#..#a...a#.a#.......",
"....#a....#a...a#.a#..b#...a#..#a...a#.a#.......",
"....#a....#a...a#.a#.......a#..#a...a#.a#.......",
"....#a....#aa#.a#.a#.......a#..#aa#.a#.a#.......",
"....#a#b..#aac#a#.a#.###...a#..#aac#a#.ac#......",
"....#aa#..#aaaaa#.a#.aaa...a#..#aaaaa#.aaa......",
"....#aa#..#a.#aa#.a#.aaa...a#..#a.#aa#.aaa......",
"....#a#b..#a.b#a#.a#.#ca...a#..#a.b#a#.ac#......",
"....#a....#a...a#.a#..#a...a#..#a...a#.a#.......",
"....#a....#a...a#.a#..#a...a#..#a...a#.a#.......",
"....#a....#a...a#.a#..#a...a#..#a...a#.a#.......",
"....#a....#a...a#.a#..#a...a#..#a...a#.a#.......",
"....#aaaa.#a...a#.aaaaaa.#aaaa.#a...a#.aaaa#....",
"....#aaaa.#a...a#.aaaaaa.#aaaa.#a...a#.aaaa#....",
"....#aaaa.#a...a#.aaaaaa.#aaaa.#a...a#.aaaa#....",
"................................................",
"................................................",
"................................................"};
