/* XPM */
static char *expresso32[]={
"32 32 4 1",
". c #000000",
"# c #0000ff",
"b c #000800",
"a c #800000",
"................................",
"................................",
".###.##..##.###.###.###.###.###.",
".###.##..##.###.###.###.###.###.",
".#....#..#..#.#.#.#.#...#...#...",
".#....#..#..#.#.#.#.#...#...#...",
".#....####..#.#.#.#.#...#...#...",
".##....##...###.###.##..###.###.",
".##....##...###.###.##..###.###.",
".#....####..#...##..#.....#...#.",
".#....#..#..#...#.#.#.....#...#.",
".#....#..#..#...#.#.#.....#...#.",
".###.##..##.#...#.#.###.###.###.",
".###.##..##.#...#.#.###.###.###.",
"................................",
".aaaaaaaaaaaaaaaaaaaaaaaaaaaaaa.",
".aaaaaaaaaaaaaaaaaaaaaaaaaaaaaa.",
"................................",
"...###.#..#.####.###.#..#.###...",
"...###.#b.#.####.###.#..#.###...",
"...#...#..#.#..#..#..#..#.#.....",
"...#...#..#.#.....#..#..#.#.....",
"...#...##.#.#.....#..##.#.#.....",
"...##..####.#.##..#..####.##....",
"...##..#.##.#.##..#..#.##.##....",
"...#...#..#.#..#..#..#..#.#.....",
"...#...#..#.#..#..#..#..#.#.....",
"...#...#..#.#..#..#..#..#.#.....",
"...###.#..#.####.###.#..#.###...",
"...###.#..#.####.###.#..#.###...",
"................................",
"................................"};
